<?xml version="1.0" encoding="UTF-8" standalone="no"?>
<!DOCTYPE svg PUBLIC "-//W3C//DTD SVG 1.1//EN"
 "http://www.w3.org/Graphics/SVG/1.1/DTD/svg11.dtd">
<!-- Generated by graphviz version 2.47.0 (20210316.0004)
 -->
<!-- Title: dependencies Pages: 1 -->
<svg width="1138pt" height="298pt"
 viewBox="0.00 0.00 1138.00 298.00" xmlns="http://www.w3.org/2000/svg" xmlns:xlink="http://www.w3.org/1999/xlink">
<g id="graph0" class="graph" transform="scale(1 1) rotate(0) translate(4 294)">
<title>dependencies</title>
<polygon fill="white" stroke="transparent" points="-4,4 -4,-294 1134,-294 1134,4 -4,4"/>
<text text-anchor="start" x="544.01" y="-42.4" font-family="Times-12" font-weight="bold" font-size="14.00">Legend</text>
<polygon fill="#ffffb3" stroke="transparent" points="331,-10 331,-30 351,-30 351,-10 331,-10"/>
<text text-anchor="start" x="354.63" y="-15.4" font-family="Times-12" font-size="14.00"> &#160;Declarations</text>
<polygon fill="#8dd3c7" stroke="transparent" points="444,-10 444,-30 464,-30 464,-10 444,-10"/>
<text text-anchor="start" x="467.73" y="-15.4" font-family="Times-12" font-size="14.00"> &#160;Module</text>
<polygon fill="#80b1d3" stroke="transparent" points="530,-10 530,-30 550,-30 550,-10 530,-10"/>
<text text-anchor="start" x="553.78" y="-15.4" font-family="Times-12" font-size="14.00"> &#160;Bootstrap</text>
<polygon fill="#fdb462" stroke="transparent" points="627,-10 627,-30 647,-30 647,-10 627,-10"/>
<text text-anchor="start" x="650.67" y="-15.4" font-family="Times-12" font-size="14.00"> &#160;Providers</text>
<polygon fill="#fb8072" stroke="transparent" points="723,-10 723,-30 743,-30 743,-10 723,-10"/>
<text text-anchor="start" x="746.73" y="-15.4" font-family="Times-12" font-size="14.00"> &#160;Exports</text>
<g id="clust1" class="cluster">
<title>cluster_AppModule</title>
<polygon fill="none" stroke="black" stroke-dasharray="1,5" points="89,-146 89,-274 581,-274 581,-146 89,-146"/>
</g>
<g id="clust3" class="cluster">
<title>cluster_AppModule_imports</title>
<polygon fill="none" stroke="black" points="97,-154 97,-206 573,-206 573,-154 97,-154"/>
</g>
<g id="clust7" class="cluster">
<title>cluster_CategoriesModule</title>
<polygon fill="none" stroke="black" stroke-dasharray="1,5" points="8,-70 8,-138 202,-138 202,-70 8,-70"/>
</g>
<g id="clust12" class="cluster">
<title>cluster_CategoriesModule_providers</title>
<polygon fill="none" stroke="black" points="16,-78 16,-130 194,-130 194,-78 16,-78"/>
</g>
<g id="clust13" class="cluster">
<title>cluster_FoodsModule</title>
<polygon fill="none" stroke="black" stroke-dasharray="1,5" points="210,-70 210,-138 370,-138 370,-70 210,-70"/>
</g>
<g id="clust18" class="cluster">
<title>cluster_FoodsModule_providers</title>
<polygon fill="none" stroke="black" points="218,-78 218,-130 362,-130 362,-78 218,-78"/>
</g>
<g id="clust19" class="cluster">
<title>cluster_MealsModule</title>
<polygon fill="none" stroke="black" stroke-dasharray="1,5" points="378,-70 378,-138 538,-138 538,-70 378,-70"/>
</g>
<g id="clust24" class="cluster">
<title>cluster_MealsModule_providers</title>
<polygon fill="none" stroke="black" points="386,-78 386,-130 530,-130 530,-78 386,-78"/>
</g>
<g id="clust25" class="cluster">
<title>cluster_PrismaModule</title>
<polygon fill="none" stroke="black" stroke-dasharray="1,5" points="589,-214 589,-282 1122,-282 1122,-214 589,-214"/>
</g>
<g id="clust28" class="cluster">
<title>cluster_PrismaModule_exports</title>
<polygon fill="none" stroke="black" points="891,-222 891,-274 1114,-274 1114,-222 891,-222"/>
</g>
<g id="clust30" class="cluster">
<title>cluster_PrismaModule_providers</title>
<polygon fill="none" stroke="black" points="597,-222 597,-274 883,-274 883,-222 597,-222"/>
</g>
<!-- CategoriesModule -->
<g id="node1" class="node">
<title>CategoriesModule</title>
<polygon fill="#8dd3c7" stroke="black" points="224.92,-198 221.92,-202 200.92,-202 197.92,-198 105.08,-198 105.08,-162 224.92,-162 224.92,-198"/>
<text text-anchor="middle" x="165" y="-175.8" font-family="Times,serif" font-size="14.00">CategoriesModule</text>
</g>
<!-- AppModule -->
<g id="node5" class="node">
<title>AppModule</title>
<polygon fill="#8dd3c7" stroke="black" points="387.66,-266 384.66,-270 363.66,-270 360.66,-266 304.34,-266 304.34,-230 387.66,-230 387.66,-266"/>
<text text-anchor="middle" x="346" y="-243.8" font-family="Times,serif" font-size="14.00">AppModule</text>
</g>
<!-- CategoriesModule&#45;&gt;AppModule -->
<g id="edge1" class="edge">
<title>CategoriesModule&#45;&gt;AppModule</title>
<path fill="none" stroke="black" d="M165,-198.22C165,-218.37 165,-248 165,-248 165,-248 294.02,-248 294.02,-248"/>
<polygon fill="black" stroke="black" points="294.02,-251.5 304.02,-248 294.02,-244.5 294.02,-251.5"/>
</g>
<!-- FoodsModule -->
<g id="node2" class="node">
<title>FoodsModule</title>
<polygon fill="#8dd3c7" stroke="black" points="336.78,-198 333.78,-202 312.78,-202 309.78,-198 243.22,-198 243.22,-162 336.78,-162 336.78,-198"/>
<text text-anchor="middle" x="290" y="-175.8" font-family="Times,serif" font-size="14.00">FoodsModule</text>
</g>
<!-- FoodsModule&#45;&gt;AppModule -->
<g id="edge2" class="edge">
<title>FoodsModule&#45;&gt;AppModule</title>
<path fill="none" stroke="black" d="M320.53,-198.22C320.53,-198.22 320.53,-219.73 320.53,-219.73"/>
<polygon fill="black" stroke="black" points="317.03,-219.73 320.53,-229.73 324.03,-219.73 317.03,-219.73"/>
</g>
<!-- MealsModule -->
<g id="node3" class="node">
<title>MealsModule</title>
<polygon fill="#8dd3c7" stroke="black" points="448.76,-198 445.76,-202 424.76,-202 421.76,-198 355.24,-198 355.24,-162 448.76,-162 448.76,-198"/>
<text text-anchor="middle" x="402" y="-175.8" font-family="Times,serif" font-size="14.00">MealsModule</text>
</g>
<!-- MealsModule&#45;&gt;AppModule -->
<g id="edge3" class="edge">
<title>MealsModule&#45;&gt;AppModule</title>
<path fill="none" stroke="black" d="M371.47,-198.22C371.47,-198.22 371.47,-219.73 371.47,-219.73"/>
<polygon fill="black" stroke="black" points="367.97,-219.73 371.47,-229.73 374.97,-219.73 367.97,-219.73"/>
</g>
<!-- PrismaModule -->
<g id="node4" class="node">
<title>PrismaModule</title>
<polygon fill="#8dd3c7" stroke="black" points="565.43,-198 562.43,-202 541.43,-202 538.43,-198 466.57,-198 466.57,-162 565.43,-162 565.43,-198"/>
<text text-anchor="middle" x="516" y="-175.8" font-family="Times,serif" font-size="14.00">PrismaModule</text>
</g>
<!-- PrismaModule&#45;&gt;AppModule -->
<g id="edge4" class="edge">
<title>PrismaModule&#45;&gt;AppModule</title>
<path fill="none" stroke="black" d="M499.59,-198.27C499.59,-216.56 499.59,-242 499.59,-242 499.59,-242 397.97,-242 397.97,-242"/>
<polygon fill="black" stroke="black" points="397.97,-238.5 387.97,-242 397.97,-245.5 397.97,-238.5"/>
</g>
<!-- PrismaService  -->
<g id="node9" class="node">
<title>PrismaService </title>
<polygon fill="#fb8072" stroke="black" points="1106.36,-266 1005.64,-266 1005.64,-230 1106.36,-230 1106.36,-266"/>
<text text-anchor="middle" x="1056" y="-243.8" font-family="Times,serif" font-size="14.00">PrismaService </text>
</g>
<!-- PrismaModule&#45;&gt;PrismaService  -->
<g id="edge8" class="edge">
<title>PrismaModule&#45;&gt;PrismaService </title>
<path fill="none" stroke="black" stroke-dasharray="5,2" d="M565.35,-171C698.66,-171 1056,-171 1056,-171 1056,-171 1056,-219.75 1056,-219.75"/>
<polygon fill="black" stroke="black" points="1052.5,-219.75 1056,-229.75 1059.5,-219.75 1052.5,-219.75"/>
</g>
<!-- SeedService  -->
<g id="node10" class="node">
<title>SeedService </title>
<polygon fill="#fb8072" stroke="black" points="987.19,-266 898.81,-266 898.81,-230 987.19,-230 987.19,-266"/>
<text text-anchor="middle" x="943" y="-243.8" font-family="Times,serif" font-size="14.00">SeedService </text>
</g>
<!-- PrismaModule&#45;&gt;SeedService  -->
<g id="edge9" class="edge">
<title>PrismaModule&#45;&gt;SeedService </title>
<path fill="none" stroke="black" stroke-dasharray="5,2" d="M565.4,-180C677.8,-180 943,-180 943,-180 943,-180 943,-219.78 943,-219.78"/>
<polygon fill="black" stroke="black" points="939.5,-219.78 943,-229.78 946.5,-219.78 939.5,-219.78"/>
</g>
<!-- CategoriesService -->
<g id="node6" class="node">
<title>CategoriesService</title>
<ellipse fill="#fdb462" stroke="black" cx="105" cy="-104" rx="81.07" ry="18"/>
<text text-anchor="middle" x="105" y="-99.8" font-family="Times,serif" font-size="14.00">CategoriesService</text>
</g>
<!-- CategoriesService&#45;&gt;CategoriesModule -->
<g id="edge5" class="edge">
<title>CategoriesService&#45;&gt;CategoriesModule</title>
<path fill="none" stroke="black" d="M145.79,-119.75C145.79,-119.75 145.79,-151.87 145.79,-151.87"/>
<polygon fill="black" stroke="black" points="142.29,-151.87 145.79,-161.87 149.29,-151.87 142.29,-151.87"/>
</g>
<!-- FoodsService -->
<g id="node7" class="node">
<title>FoodsService</title>
<ellipse fill="#fdb462" stroke="black" cx="290" cy="-104" rx="63.7" ry="18"/>
<text text-anchor="middle" x="290" y="-99.8" font-family="Times,serif" font-size="14.00">FoodsService</text>
</g>
<!-- FoodsService&#45;&gt;FoodsModule -->
<g id="edge6" class="edge">
<title>FoodsService&#45;&gt;FoodsModule</title>
<path fill="none" stroke="black" d="M290,-122.01C290,-122.01 290,-151.85 290,-151.85"/>
<polygon fill="black" stroke="black" points="286.5,-151.85 290,-161.85 293.5,-151.85 286.5,-151.85"/>
</g>
<!-- MealsService -->
<g id="node8" class="node">
<title>MealsService</title>
<ellipse fill="#fdb462" stroke="black" cx="458" cy="-104" rx="63.68" ry="18"/>
<text text-anchor="middle" x="458" y="-99.8" font-family="Times,serif" font-size="14.00">MealsService</text>
</g>
<!-- MealsService&#45;&gt;MealsModule -->
<g id="edge7" class="edge">
<title>MealsService&#45;&gt;MealsModule</title>
<path fill="none" stroke="black" d="M421.65,-119.02C421.65,-119.02 421.65,-151.8 421.65,-151.8"/>
<polygon fill="black" stroke="black" points="418.15,-151.8 421.65,-161.8 425.15,-151.8 418.15,-151.8"/>
</g>
<!-- PrismaService -->
<g id="node11" class="node">
<title>PrismaService</title>
<ellipse fill="#fdb462" stroke="black" cx="808" cy="-248" rx="66.63" ry="18"/>
<text text-anchor="middle" x="808" y="-243.8" font-family="Times,serif" font-size="14.00">PrismaService</text>
</g>
<!-- PrismaService&#45;&gt;PrismaModule -->
<g id="edge10" class="edge">
<title>PrismaService&#45;&gt;PrismaModule</title>
<path fill="none" stroke="black" d="M808,-229.98C808,-212.63 808,-189 808,-189 808,-189 575.53,-189 575.53,-189"/>
<polygon fill="black" stroke="black" points="575.53,-185.5 565.53,-189 575.53,-192.5 575.53,-185.5"/>
</g>
<!-- SeedService -->
<g id="node12" class="node">
<title>SeedService</title>
<ellipse fill="#fdb462" stroke="black" cx="664" cy="-248" rx="58.53" ry="18"/>
<text text-anchor="middle" x="664" y="-243.8" font-family="Times,serif" font-size="14.00">SeedService</text>
</g>
<!-- SeedService&#45;&gt;PrismaModule -->
<g id="edge11" class="edge">
<title>SeedService&#45;&gt;PrismaModule</title>
<path fill="none" stroke="black" d="M608.57,-254C572.61,-254 532.41,-254 532.41,-254 532.41,-254 532.41,-208.29 532.41,-208.29"/>
<polygon fill="black" stroke="black" points="535.91,-208.29 532.41,-198.29 528.91,-208.29 535.91,-208.29"/>
</g>
</g>
</svg>
