<?xml version="1.0" encoding="UTF-8" standalone="no"?>
<!DOCTYPE svg PUBLIC "-//W3C//DTD SVG 1.1//EN"
 "http://www.w3.org/Graphics/SVG/1.1/DTD/svg11.dtd">
<!-- Generated by graphviz version 2.47.0 (20210316.0004)
 -->
<!-- Title: dependencies Pages: 1 -->
<svg width="554pt" height="287pt"
 viewBox="0.00 0.00 554.00 287.00" xmlns="http://www.w3.org/2000/svg" xmlns:xlink="http://www.w3.org/1999/xlink">
<g id="graph0" class="graph" transform="scale(1 1) rotate(0) translate(4 283)">
<title>dependencies</title>
<polygon fill="white" stroke="transparent" points="-4,4 -4,-283 550,-283 550,4 -4,4"/>
<text text-anchor="start" x="252.01" y="-42.4" font-family="Times-12" font-weight="bold" font-size="14.00">Legend</text>
<polygon fill="#ffffb3" stroke="transparent" points="39,-10 39,-30 59,-30 59,-10 39,-10"/>
<text text-anchor="start" x="62.63" y="-15.4" font-family="Times-12" font-size="14.00"> &#160;Declarations</text>
<polygon fill="#8dd3c7" stroke="transparent" points="152,-10 152,-30 172,-30 172,-10 152,-10"/>
<text text-anchor="start" x="175.73" y="-15.4" font-family="Times-12" font-size="14.00"> &#160;Module</text>
<polygon fill="#80b1d3" stroke="transparent" points="238,-10 238,-30 258,-30 258,-10 238,-10"/>
<text text-anchor="start" x="261.78" y="-15.4" font-family="Times-12" font-size="14.00"> &#160;Bootstrap</text>
<polygon fill="#fdb462" stroke="transparent" points="335,-10 335,-30 355,-30 355,-10 335,-10"/>
<text text-anchor="start" x="358.67" y="-15.4" font-family="Times-12" font-size="14.00"> &#160;Providers</text>
<polygon fill="#fb8072" stroke="transparent" points="431,-10 431,-30 451,-30 451,-10 431,-10"/>
<text text-anchor="start" x="454.73" y="-15.4" font-family="Times-12" font-size="14.00"> &#160;Exports</text>
<g id="clust1" class="cluster">
<title>cluster_AppModule</title>
<polygon fill="none" stroke="black" stroke-dasharray="1,5" points="89,-146 89,-271 465,-271 465,-146 89,-146"/>
</g>
<g id="clust3" class="cluster">
<title>cluster_AppModule_imports</title>
<polygon fill="none" stroke="black" points="97,-154 97,-206 457,-206 457,-154 97,-154"/>
</g>
<g id="clust7" class="cluster">
<title>cluster_CategoriesModule</title>
<polygon fill="none" stroke="black" stroke-dasharray="1,5" points="8,-70 8,-138 202,-138 202,-70 8,-70"/>
</g>
<g id="clust12" class="cluster">
<title>cluster_CategoriesModule_providers</title>
<polygon fill="none" stroke="black" points="16,-78 16,-130 194,-130 194,-78 16,-78"/>
</g>
<g id="clust13" class="cluster">
<title>cluster_FoodsModule</title>
<polygon fill="none" stroke="black" stroke-dasharray="1,5" points="210,-70 210,-138 370,-138 370,-70 210,-70"/>
</g>
<g id="clust18" class="cluster">
<title>cluster_FoodsModule_providers</title>
<polygon fill="none" stroke="black" points="218,-78 218,-130 362,-130 362,-78 218,-78"/>
</g>
<g id="clust19" class="cluster">
<title>cluster_MealsModule</title>
<polygon fill="none" stroke="black" stroke-dasharray="1,5" points="378,-70 378,-138 538,-138 538,-70 378,-70"/>
</g>
<g id="clust24" class="cluster">
<title>cluster_MealsModule_providers</title>
<polygon fill="none" stroke="black" points="386,-78 386,-130 530,-130 530,-78 386,-78"/>
</g>
<!-- CategoriesModule -->
<g id="node1" class="node">
<title>CategoriesModule</title>
<polygon fill="#8dd3c7" stroke="black" points="224.92,-198 221.92,-202 200.92,-202 197.92,-198 105.08,-198 105.08,-162 224.92,-162 224.92,-198"/>
<text text-anchor="middle" x="165" y="-175.8" font-family="Times,serif" font-size="14.00">CategoriesModule</text>
</g>
<!-- AppModule -->
<g id="node4" class="node">
<title>AppModule</title>
<polygon fill="#8dd3c7" stroke="black" points="331.66,-263 328.66,-267 307.66,-267 304.66,-263 248.34,-263 248.34,-227 331.66,-227 331.66,-263"/>
<text text-anchor="middle" x="290" y="-240.8" font-family="Times,serif" font-size="14.00">AppModule</text>
</g>
<!-- CategoriesModule&#45;&gt;AppModule -->
<g id="edge1" class="edge">
<title>CategoriesModule&#45;&gt;AppModule</title>
<path fill="none" stroke="black" d="M165,-198.11C165,-217.34 165,-245 165,-245 165,-245 238.03,-245 238.03,-245"/>
<polygon fill="black" stroke="black" points="238.03,-248.5 248.03,-245 238.03,-241.5 238.03,-248.5"/>
</g>
<!-- FoodsModule -->
<g id="node2" class="node">
<title>FoodsModule</title>
<polygon fill="#8dd3c7" stroke="black" points="336.78,-198 333.78,-202 312.78,-202 309.78,-198 243.22,-198 243.22,-162 336.78,-162 336.78,-198"/>
<text text-anchor="middle" x="290" y="-175.8" font-family="Times,serif" font-size="14.00">FoodsModule</text>
</g>
<!-- FoodsModule&#45;&gt;AppModule -->
<g id="edge2" class="edge">
<title>FoodsModule&#45;&gt;AppModule</title>
<path fill="none" stroke="black" d="M290,-198.11C290,-198.11 290,-216.99 290,-216.99"/>
<polygon fill="black" stroke="black" points="286.5,-216.99 290,-226.99 293.5,-216.99 286.5,-216.99"/>
</g>
<!-- MealsModule -->
<g id="node3" class="node">
<title>MealsModule</title>
<polygon fill="#8dd3c7" stroke="black" points="448.76,-198 445.76,-202 424.76,-202 421.76,-198 355.24,-198 355.24,-162 448.76,-162 448.76,-198"/>
<text text-anchor="middle" x="402" y="-175.8" font-family="Times,serif" font-size="14.00">MealsModule</text>
</g>
<!-- MealsModule&#45;&gt;AppModule -->
<g id="edge3" class="edge">
<title>MealsModule&#45;&gt;AppModule</title>
<path fill="none" stroke="black" d="M402,-198.11C402,-217.34 402,-245 402,-245 402,-245 341.7,-245 341.7,-245"/>
<polygon fill="black" stroke="black" points="341.7,-241.5 331.7,-245 341.7,-248.5 341.7,-241.5"/>
</g>
<!-- CategoriesService -->
<g id="node5" class="node">
<title>CategoriesService</title>
<ellipse fill="#fdb462" stroke="black" cx="105" cy="-104" rx="81.07" ry="18"/>
<text text-anchor="middle" x="105" y="-99.8" font-family="Times,serif" font-size="14.00">CategoriesService</text>
</g>
<!-- CategoriesService&#45;&gt;CategoriesModule -->
<g id="edge4" class="edge">
<title>CategoriesService&#45;&gt;CategoriesModule</title>
<path fill="none" stroke="black" d="M145.79,-119.75C145.79,-119.75 145.79,-151.87 145.79,-151.87"/>
<polygon fill="black" stroke="black" points="142.29,-151.87 145.79,-161.87 149.29,-151.87 142.29,-151.87"/>
</g>
<!-- FoodsService -->
<g id="node6" class="node">
<title>FoodsService</title>
<ellipse fill="#fdb462" stroke="black" cx="290" cy="-104" rx="63.7" ry="18"/>
<text text-anchor="middle" x="290" y="-99.8" font-family="Times,serif" font-size="14.00">FoodsService</text>
</g>
<!-- FoodsService&#45;&gt;FoodsModule -->
<g id="edge5" class="edge">
<title>FoodsService&#45;&gt;FoodsModule</title>
<path fill="none" stroke="black" d="M290,-122.01C290,-122.01 290,-151.85 290,-151.85"/>
<polygon fill="black" stroke="black" points="286.5,-151.85 290,-161.85 293.5,-151.85 286.5,-151.85"/>
</g>
<!-- MealsService -->
<g id="node7" class="node">
<title>MealsService</title>
<ellipse fill="#fdb462" stroke="black" cx="458" cy="-104" rx="63.68" ry="18"/>
<text text-anchor="middle" x="458" y="-99.8" font-family="Times,serif" font-size="14.00">MealsService</text>
</g>
<!-- MealsService&#45;&gt;MealsModule -->
<g id="edge6" class="edge">
<title>MealsService&#45;&gt;MealsModule</title>
<path fill="none" stroke="black" d="M421.65,-119.02C421.65,-119.02 421.65,-151.8 421.65,-151.8"/>
<polygon fill="black" stroke="black" points="418.15,-151.8 421.65,-161.8 425.15,-151.8 418.15,-151.8"/>
</g>
</g>
</svg>
