<?xml version="1.0" encoding="UTF-8" standalone="no"?>
<!DOCTYPE svg PUBLIC "-//W3C//DTD SVG 1.1//EN"
 "http://www.w3.org/Graphics/SVG/1.1/DTD/svg11.dtd">
<!-- Generated by graphviz version 2.47.0 (20210316.0004)
 -->
<!-- Title: dependencies Pages: 1 -->
<svg width="504pt" height="211pt"
 viewBox="0.00 0.00 504.00 211.00" xmlns="http://www.w3.org/2000/svg" xmlns:xlink="http://www.w3.org/1999/xlink">
<g id="graph0" class="graph" transform="scale(1 1) rotate(0) translate(4 207)">
<title>dependencies</title>
<polygon fill="white" stroke="transparent" points="-4,4 -4,-207 500,-207 500,4 -4,4"/>
<text text-anchor="start" x="227.01" y="-42.4" font-family="Times-12" font-weight="bold" font-size="14.00">Legend</text>
<polygon fill="#ffffb3" stroke="transparent" points="14,-10 14,-30 34,-30 34,-10 14,-10"/>
<text text-anchor="start" x="37.63" y="-15.4" font-family="Times-12" font-size="14.00"> &#160;Declarations</text>
<polygon fill="#8dd3c7" stroke="transparent" points="127,-10 127,-30 147,-30 147,-10 127,-10"/>
<text text-anchor="start" x="150.73" y="-15.4" font-family="Times-12" font-size="14.00"> &#160;Module</text>
<polygon fill="#80b1d3" stroke="transparent" points="213,-10 213,-30 233,-30 233,-10 213,-10"/>
<text text-anchor="start" x="236.78" y="-15.4" font-family="Times-12" font-size="14.00"> &#160;Bootstrap</text>
<polygon fill="#fdb462" stroke="transparent" points="310,-10 310,-30 330,-30 330,-10 310,-10"/>
<text text-anchor="start" x="333.67" y="-15.4" font-family="Times-12" font-size="14.00"> &#160;Providers</text>
<polygon fill="#fb8072" stroke="transparent" points="406,-10 406,-30 426,-30 426,-10 406,-10"/>
<text text-anchor="start" x="429.73" y="-15.4" font-family="Times-12" font-size="14.00"> &#160;Exports</text>
<g id="clust1" class="cluster">
<title>cluster_AppModule</title>
<polygon fill="none" stroke="black" stroke-dasharray="1,5" points="60,-70 60,-195 436,-195 436,-70 60,-70"/>
</g>
<g id="clust3" class="cluster">
<title>cluster_AppModule_imports</title>
<polygon fill="none" stroke="black" points="68,-78 68,-130 428,-130 428,-78 68,-78"/>
</g>
<!-- CategoriesModule -->
<g id="node1" class="node">
<title>CategoriesModule</title>
<polygon fill="#8dd3c7" stroke="black" points="419.92,-122 416.92,-126 395.92,-126 392.92,-122 300.08,-122 300.08,-86 419.92,-86 419.92,-122"/>
<text text-anchor="middle" x="360" y="-99.8" font-family="Times,serif" font-size="14.00">CategoriesModule</text>
</g>
<!-- AppModule -->
<g id="node4" class="node">
<title>AppModule</title>
<polygon fill="#8dd3c7" stroke="black" points="276.66,-187 273.66,-191 252.66,-191 249.66,-187 193.34,-187 193.34,-151 276.66,-151 276.66,-187"/>
<text text-anchor="middle" x="235" y="-164.8" font-family="Times,serif" font-size="14.00">AppModule</text>
</g>
<!-- CategoriesModule&#45;&gt;AppModule -->
<g id="edge1" class="edge">
<title>CategoriesModule&#45;&gt;AppModule</title>
<path fill="none" stroke="black" d="M360,-122.11C360,-141.34 360,-169 360,-169 360,-169 286.97,-169 286.97,-169"/>
<polygon fill="black" stroke="black" points="286.97,-165.5 276.97,-169 286.97,-172.5 286.97,-165.5"/>
</g>
<!-- FoodsModule -->
<g id="node2" class="node">
<title>FoodsModule</title>
<polygon fill="#8dd3c7" stroke="black" points="281.78,-122 278.78,-126 257.78,-126 254.78,-122 188.22,-122 188.22,-86 281.78,-86 281.78,-122"/>
<text text-anchor="middle" x="235" y="-99.8" font-family="Times,serif" font-size="14.00">FoodsModule</text>
</g>
<!-- FoodsModule&#45;&gt;AppModule -->
<g id="edge2" class="edge">
<title>FoodsModule&#45;&gt;AppModule</title>
<path fill="none" stroke="black" d="M235,-122.11C235,-122.11 235,-140.99 235,-140.99"/>
<polygon fill="black" stroke="black" points="231.5,-140.99 235,-150.99 238.5,-140.99 231.5,-140.99"/>
</g>
<!-- MealsModule -->
<g id="node3" class="node">
<title>MealsModule</title>
<polygon fill="#8dd3c7" stroke="black" points="169.76,-122 166.76,-126 145.76,-126 142.76,-122 76.24,-122 76.24,-86 169.76,-86 169.76,-122"/>
<text text-anchor="middle" x="123" y="-99.8" font-family="Times,serif" font-size="14.00">MealsModule</text>
</g>
<!-- MealsModule&#45;&gt;AppModule -->
<g id="edge3" class="edge">
<title>MealsModule&#45;&gt;AppModule</title>
<path fill="none" stroke="black" d="M123,-122.11C123,-141.34 123,-169 123,-169 123,-169 183.3,-169 183.3,-169"/>
<polygon fill="black" stroke="black" points="183.3,-172.5 193.3,-169 183.3,-165.5 183.3,-172.5"/>
</g>
</g>
</svg>
