<?xml version="1.0" encoding="UTF-8" standalone="no"?>
<!DOCTYPE svg PUBLIC "-//W3C//DTD SVG 1.1//EN"
 "http://www.w3.org/Graphics/SVG/1.1/DTD/svg11.dtd">
<!-- Generated by graphviz version 2.47.0 (20210316.0004)
 -->
<!-- Title: dependencies Pages: 1 -->
<svg width="504pt" height="284pt"
 viewBox="0.00 0.00 504.00 284.00" xmlns="http://www.w3.org/2000/svg" xmlns:xlink="http://www.w3.org/1999/xlink">
<g id="graph0" class="graph" transform="scale(1 1) rotate(0) translate(4 280)">
<title>dependencies</title>
<polygon fill="white" stroke="transparent" points="-4,4 -4,-280 500,-280 500,4 -4,4"/>
<text text-anchor="start" x="227.01" y="-42.4" font-family="Times-12" font-weight="bold" font-size="14.00">Legend</text>
<polygon fill="#ffffb3" stroke="transparent" points="14,-10 14,-30 34,-30 34,-10 14,-10"/>
<text text-anchor="start" x="37.63" y="-15.4" font-family="Times-12" font-size="14.00"> &#160;Declarations</text>
<polygon fill="#8dd3c7" stroke="transparent" points="127,-10 127,-30 147,-30 147,-10 127,-10"/>
<text text-anchor="start" x="150.73" y="-15.4" font-family="Times-12" font-size="14.00"> &#160;Module</text>
<polygon fill="#80b1d3" stroke="transparent" points="213,-10 213,-30 233,-30 233,-10 213,-10"/>
<text text-anchor="start" x="236.78" y="-15.4" font-family="Times-12" font-size="14.00"> &#160;Bootstrap</text>
<polygon fill="#fdb462" stroke="transparent" points="310,-10 310,-30 330,-30 330,-10 310,-10"/>
<text text-anchor="start" x="333.67" y="-15.4" font-family="Times-12" font-size="14.00"> &#160;Providers</text>
<polygon fill="#fb8072" stroke="transparent" points="406,-10 406,-30 426,-30 426,-10 406,-10"/>
<text text-anchor="start" x="429.73" y="-15.4" font-family="Times-12" font-size="14.00"> &#160;Exports</text>
<g id="clust1" class="cluster">
<title>cluster_PrismaModule</title>
<polygon fill="none" stroke="black" stroke-dasharray="1,5" points="97,-70 97,-268 399,-268 399,-70 97,-70"/>
</g>
<g id="clust6" class="cluster">
<title>cluster_PrismaModule_providers</title>
<polygon fill="none" stroke="black" points="105,-78 105,-130 391,-130 391,-78 105,-78"/>
</g>
<g id="clust4" class="cluster">
<title>cluster_PrismaModule_exports</title>
<polygon fill="none" stroke="black" points="125,-208 125,-260 348,-260 348,-208 125,-208"/>
</g>
<!-- PrismaService  -->
<g id="node1" class="node">
<title>PrismaService </title>
<polygon fill="#fb8072" stroke="black" points="340.36,-252 239.64,-252 239.64,-216 340.36,-216 340.36,-252"/>
<text text-anchor="middle" x="290" y="-229.8" font-family="Times,serif" font-size="14.00">PrismaService </text>
</g>
<!-- SeedService  -->
<g id="node2" class="node">
<title>SeedService </title>
<polygon fill="#fb8072" stroke="black" points="221.19,-252 132.81,-252 132.81,-216 221.19,-216 221.19,-252"/>
<text text-anchor="middle" x="177" y="-229.8" font-family="Times,serif" font-size="14.00">SeedService </text>
</g>
<!-- PrismaModule -->
<g id="node3" class="node">
<title>PrismaModule</title>
<polygon fill="#8dd3c7" stroke="black" points="245.43,-187 242.43,-191 221.43,-191 218.43,-187 146.57,-187 146.57,-151 245.43,-151 245.43,-187"/>
<text text-anchor="middle" x="196" y="-164.8" font-family="Times,serif" font-size="14.00">PrismaModule</text>
</g>
<!-- PrismaModule&#45;&gt;PrismaService  -->
<g id="edge1" class="edge">
<title>PrismaModule&#45;&gt;PrismaService </title>
<path fill="none" stroke="black" stroke-dasharray="5,2" d="M230.58,-187.11C230.58,-206.34 230.58,-234 230.58,-234 230.58,-234 231.48,-234 231.48,-234"/>
<polygon fill="black" stroke="black" points="229.61,-237.5 239.61,-234 229.61,-230.5 229.61,-237.5"/>
</g>
<!-- PrismaModule&#45;&gt;SeedService  -->
<g id="edge2" class="edge">
<title>PrismaModule&#45;&gt;SeedService </title>
<path fill="none" stroke="black" stroke-dasharray="5,2" d="M184.06,-187.11C184.06,-187.11 184.06,-205.99 184.06,-205.99"/>
<polygon fill="black" stroke="black" points="180.56,-205.99 184.06,-215.99 187.56,-205.99 180.56,-205.99"/>
</g>
<!-- PrismaService -->
<g id="node4" class="node">
<title>PrismaService</title>
<ellipse fill="#fdb462" stroke="black" cx="316" cy="-104" rx="66.63" ry="18"/>
<text text-anchor="middle" x="316" y="-99.8" font-family="Times,serif" font-size="14.00">PrismaService</text>
</g>
<!-- PrismaService&#45;&gt;PrismaModule -->
<g id="edge3" class="edge">
<title>PrismaService&#45;&gt;PrismaModule</title>
<path fill="none" stroke="black" d="M249.17,-104C242.42,-104 237.99,-104 237.99,-104 237.99,-104 237.99,-140.89 237.99,-140.89"/>
<polygon fill="black" stroke="black" points="234.49,-140.89 237.99,-150.89 241.49,-140.89 234.49,-140.89"/>
</g>
<!-- SeedService -->
<g id="node5" class="node">
<title>SeedService</title>
<ellipse fill="#fdb462" stroke="black" cx="172" cy="-104" rx="58.53" ry="18"/>
<text text-anchor="middle" x="172" y="-99.8" font-family="Times,serif" font-size="14.00">SeedService</text>
</g>
<!-- SeedService&#45;&gt;PrismaModule -->
<g id="edge4" class="edge">
<title>SeedService&#45;&gt;PrismaModule</title>
<path fill="none" stroke="black" d="M188.77,-121.42C188.77,-121.42 188.77,-140.62 188.77,-140.62"/>
<polygon fill="black" stroke="black" points="185.27,-140.62 188.77,-150.62 192.27,-140.62 185.27,-140.62"/>
</g>
</g>
</svg>
